# xmcd
#
# Track frame offsets:
# 183
# 19285
# 29498
# 44960
# 55043
# 64548
# 81455
# 94640
# 106688
# 123880
# 138350
# 155448
# 171595
#
# Disc length: 2499 seconds
#
# Revision: 1
# Processed by: cddbd v1.4PL0 Copyright (c) Steve Scherf et al.
# Submitted via: CdCzar 3.3b
#
DISCID=af09c10d
DTITLE=Merle Haggard - Live at Church Station Vol 2 - Country Stars 9
DYEAR=1900
DGENRE=country
TTITLE0=What AM I Going To Do With the Rest of My Life
TTITLE1=Ida Red
TTITLE2=San Antonio Rose
TTITLE3=Corrina Corrina
TTITLE4=Take Me Back to Tulsa
TTITLE5=Faded Love
TTITLE6=Fiddle Breakdown
TTITLE7=Right or Wrong
TTITLE8=Ramblin' Fever
TTITLE9=That's the Way Love Goes
TTITLE10=Today I Started Loving You Again
TTITLE11=Okie from Muskogee
TTITLE12=The Fightin' Side of Me
EXTD=
EXTT0=
EXTT1=
EXTT2=
EXTT3=
EXTT4=
EXTT5=
EXTT6=
EXTT7=
EXTT8=
EXTT9=
EXTT10=
EXTT11=
EXTT12=
PLAYORDER=
